<?xml version="1.0" encoding="UTF-8"?><svg id="_이어_2" xmlns="http://www.w3.org/2000/svg" viewBox="0 0 365.67 68.03"><defs><style>.cls-1{fill:#001143;}.cls-2{fill:#38b1df;}</style></defs><g id="kor_ver"><g id="POLYLINE"><path class="cls-1" d="M13.61,51.02h4.61c-2.93-2.58-4.61-6.3-4.61-10.2v-13.61c0-7.51,6.09-13.61,13.61-13.61h13.61c3.91,0,7.62,1.68,10.2,4.61v-4.61c0-7.51-6.09-13.61-13.61-13.61h-10.2C12.18,0,0,12.18,0,27.21v10.2c0,7.51,6.09,13.61,13.61,13.61h0Z"/></g><g id="ARC"><path class="cls-2" d="M27.21,68.03c-11.81,0-22.27-7.62-25.9-18.86,3.21,3.36,7.65,5.25,12.29,5.25h31.2l-8.8-8.8c-2.66-2.66-2.66-6.96,0-9.62,2.66-2.66,6.96-2.66,9.62,0l20.41,20.41c1.28,1.28,1.99,3.01,1.99,4.81,0,3.76-3.05,6.8-6.8,6.8H27.21Z"/></g><g id="POLYLINE-2"><path class="cls-2" d="M49.17,1.31c11.24,3.63,18.86,14.09,18.86,25.9v26.39l-13.61-13.61V13.61c0-4.64-1.9-9.08-5.25-12.29Z"/></g><g><g id="POLYLINE-3"><path class="cls-1" d="M170.08,13.61h-4.25c-.83,0-1.42,.59-1.42,1.42v21.26c0,2.49-1.76,4.25-4.25,4.25h-14.17c-2.49,0-4.25-1.76-4.25-4.25V15.02c0-.83-.59-1.42-1.42-1.42h-4.25c-.83,0-1.42,.59-1.42,1.42v21.26c0,6.64,4.7,11.34,11.34,11.34h14.17c6.64,0,11.34-4.7,11.34-11.34V15.02c0-.83-.59-1.42-1.42-1.42Z"/></g><g id="POLYLINE-4"><path class="cls-1" d="M256.54,47.62h-4.25c-.83,0-1.42-.59-1.42-1.42V24.94c0-2.49-1.76-4.25-4.25-4.25h-14.17c-2.49,0-4.25,1.76-4.25,4.25v21.26c0,.83-.59,1.42-1.42,1.42h-4.25c-.83,0-1.42-.59-1.42-1.42V24.94c0-6.64,4.7-11.34,11.34-11.34h14.17c6.64,0,11.34,4.7,11.34,11.34v21.26c0,.83-.59,1.42-1.42,1.42Z"/></g><g id="POLYLINE-5"><path class="cls-1" d="M262.21,19.28v-4.25c0-.83,.59-1.42,1.42-1.42h4.25V6.52c0-.83,.59-1.42,1.42-1.42h4.25c.83,0,1.42,.59,1.42,1.42v7.09h8.5c.83,0,1.42,.59,1.42,1.42v4.25c0,.83-.59,1.42-1.42,1.42h-8.5v15.59c0,2.49,1.76,4.25,4.25,4.25h4.25c.83,0,1.42,.59,1.42,1.42v4.25c0,.83-.59,1.42-1.42,1.42h-4.25c-6.64,0-11.34-4.7-11.34-11.34v-15.59h-4.25c-.83,0-1.42-.59-1.42-1.42Z"/></g><g id="POLYLINE-6"><path class="cls-1" d="M342.99,47.62h21.26c.83,0,1.42-.59,1.42-1.42v-4.25c0-.83-.59-1.42-1.42-1.42h-21.26c-2.49,0-4.25-1.76-4.25-4.25v-11.34c0-2.49,1.76-4.25,4.25-4.25h21.26c.83,0,1.42-.59,1.42-1.42v-4.25c0-.83-.59-1.42-1.42-1.42h-21.26c-6.64,0-11.34,4.7-11.34,11.34v11.34c0,6.64,4.7,11.34,11.34,11.34Z"/></g><path class="cls-1" d="M202.68,13.61h-21.26c-.83,0-1.42,.59-1.42,1.42v4.25c0,.83,.59,1.42,1.42,1.42h21.26c2.49,0,4.25,1.76,4.25,4.25v2.83h-21.26c-4.98,0-8.5,3.52-8.5,8.5v2.83c0,4.98,3.52,8.5,8.5,8.5h25.51c1.66,0,2.83-1.17,2.83-2.83V24.94c0-6.64-4.7-11.34-11.34-11.34Zm4.25,26.93h-19.84c-1.66,0-2.83-1.17-2.83-2.83v-1.42c0-1.66,1.17-2.83,2.83-2.83h19.84v7.09Z"/><path class="cls-1" d="M314.65,13.61h-14.17c-6.64,0-11.34,4.7-11.34,11.34v11.34c0,6.64,4.7,11.34,11.34,11.34h21.26c.83,0,1.42-.59,1.42-1.42v-4.25c0-.83-.59-1.42-1.42-1.42h-21.26c-2.49,0-4.25-1.76-4.25-4.25v-2.83h26.93c1.66,0,2.83-1.17,2.83-2.83v-5.67c0-6.64-4.7-11.34-11.34-11.34Zm4.25,14.17h-22.68v-2.83c0-2.49,1.76-4.25,4.25-4.25h14.17c2.49,0,4.25,1.76,4.25,4.25v2.83Z"/><path class="cls-1" d="M127.56,38.6v-13.66c0-6.26-5.08-11.34-11.34-11.34h-14.17c-6.26,0-11.34,5.08-11.34,11.34v11.34c0,6.26,5.08,11.34,11.34,11.34h21.97c.91,0,1.81-.35,2.51-1.04,1.38-1.38,1.38-3.63,0-5.01l-9.92-9.92c-1.38-1.38-3.63-1.38-5.01,0s-1.38,3.63,0,5.01l3.87,3.87h-13.41c-2.49,0-4.25-1.76-4.25-4.25v-11.34c0-2.49,1.76-4.25,4.25-4.25h14.17c2.49,0,4.25,1.76,4.25,4.25v6.57l7.09,7.09Z"/></g><g><path class="cls-1" d="M94.29,58.86c.19,0,.29,.1,.29,.29v8.59c0,.19-.1,.29-.29,.29h-1.42c-.2,0-.3-.1-.3-.29v-8.59c0-.19,.1-.29,.3-.29h1.42Z"/><path class="cls-1" d="M99.96,58.86c.21,0,.38,0,.52,.03,.14,.02,.26,.05,.37,.11,.11,.06,.21,.14,.3,.24,.1,.1,.21,.23,.33,.4l4.87,6.39c.04,.06,.09,.09,.17,.09h.12c.07,0,.11-.04,.11-.13v-6.84c0-.19,.1-.29,.29-.29h1.38c.19,0,.29,.1,.29,.29v7.52c0,.53-.1,.89-.29,1.08-.19,.19-.49,.28-.89,.28h-1.13c-.2,0-.37,0-.5-.03-.14-.02-.25-.05-.36-.1-.1-.05-.21-.13-.31-.23-.1-.1-.22-.24-.35-.41l-4.89-6.39c-.05-.06-.11-.09-.17-.09h-.12c-.07,0-.1,.04-.1,.13v6.84c0,.19-.1,.29-.29,.29h-1.38c-.2,0-.3-.1-.3-.29v-7.52c0-.53,.1-.89,.29-1.08,.19-.19,.49-.28,.89-.28h1.15Z"/><path class="cls-1" d="M112.94,58.86c.09,0,.15,.01,.19,.04,.04,.03,.08,.07,.11,.13l3.84,7.05c.03,.06,.08,.09,.16,.09h.07c.06,0,.11-.03,.14-.09l3.79-7.05c.05-.11,.15-.17,.3-.17h1.72c.11,0,.17,.03,.19,.08,.02,.06,.01,.13-.03,.22l-4.3,7.87c-.22,.4-.43,.67-.64,.8-.21,.13-.45,.2-.73,.2h-.76c-.34,0-.62-.07-.85-.2-.22-.13-.44-.4-.66-.8l-4.35-7.87c-.04-.09-.05-.16-.03-.22,.02-.06,.09-.08,.2-.08h1.65Z"/><path class="cls-1" d="M134.64,58.86c.2,0,.3,.1,.3,.29v1.24c0,.19-.1,.29-.3,.29h-5.72c-.34,0-.62,.03-.84,.08-.22,.06-.4,.15-.54,.29s-.23,.32-.28,.55c-.05,.23-.08,.52-.08,.86v.13h7.4c.19,0,.29,.1,.29,.29v1.04c0,.19-.1,.29-.29,.29h-7.4v.22c0,.34,.03,.63,.08,.86,.05,.23,.15,.42,.28,.55,.14,.14,.31,.23,.54,.29,.22,.06,.5,.09,.84,.09h5.72c.2,0,.3,.1,.3,.29v1.24c0,.19-.1,.29-.3,.29h-5.76c-.66,0-1.23-.06-1.69-.18-.46-.12-.84-.32-1.13-.6-.29-.28-.51-.63-.64-1.07s-.2-.98-.2-1.6v-2.25c0-.63,.07-1.16,.2-1.6,.14-.44,.35-.79,.64-1.07,.29-.27,.67-.48,1.13-.6,.46-.13,1.03-.19,1.69-.19h5.76Z"/><path class="cls-1" d="M146.86,58.86c.19,0,.29,.1,.29,.29v1.24c0,.19-.1,.29-.29,.29h-6.56c-.25,0-.43,.07-.54,.2-.11,.13-.16,.31-.16,.54v.45c0,.49,.23,.73,.68,.73h4.91c.76,0,1.33,.19,1.72,.58,.38,.39,.58,.95,.58,1.67v1.05c0,.64-.19,1.15-.56,1.55-.38,.39-.96,.59-1.75,.59h-7.26c-.2,0-.3-.1-.3-.29v-1.24c0-.19,.1-.29,.3-.29h6.88c.25,0,.43-.07,.54-.2,.1-.13,.16-.31,.16-.54v-.54c0-.49-.23-.73-.68-.73h-4.91c-.76,0-1.33-.19-1.72-.58-.38-.39-.58-.95-.58-1.67v-.96c0-.64,.19-1.15,.56-1.55,.38-.39,.96-.59,1.76-.59h6.94Z"/><path class="cls-1" d="M160.26,58.86c.2,0,.3,.1,.3,.29v1.28c0,.2-.1,.3-.3,.3h-4.11v7.01c0,.19-.1,.29-.29,.29h-1.43c-.19,0-.29-.1-.29-.29v-7.01h-4.11c-.2,0-.3-.1-.3-.3v-1.28c0-.19,.1-.29,.3-.29h10.23Z"/><path class="cls-1" d="M165.63,58.86c.19,0,.36,.01,.5,.04,.14,.03,.26,.08,.37,.15,.1,.07,.2,.17,.28,.3s.17,.29,.26,.5l2.72,6.29c.04,.08,.1,.12,.18,.12h.16c.09,0,.15-.04,.18-.12l2.72-6.29c.09-.21,.17-.38,.25-.5s.18-.23,.28-.3c.1-.07,.22-.12,.36-.15,.13-.03,.3-.04,.49-.04h1.4c.45,0,.76,.1,.92,.31,.16,.21,.24,.56,.24,1.05v7.52c0,.19-.1,.29-.3,.29h-1.34c-.19,0-.29-.1-.29-.29v-6.84c0-.09-.04-.13-.11-.13h-.12c-.09,0-.14,.04-.17,.1l-2.65,5.87c-.1,.24-.21,.43-.32,.6-.11,.16-.23,.29-.35,.4-.13,.1-.27,.18-.43,.22-.16,.04-.35,.07-.57,.07h-.63c-.22,0-.41-.02-.57-.07-.16-.04-.31-.12-.43-.22-.13-.1-.24-.24-.35-.4-.11-.16-.22-.36-.32-.6l-2.65-5.87c-.03-.07-.08-.1-.17-.1h-.12c-.07,0-.11,.04-.11,.13v6.84c0,.19-.1,.29-.29,.29h-1.34c-.2,0-.3-.1-.3-.29v-7.52c0-.5,.08-.85,.24-1.05,.16-.21,.47-.31,.93-.31h1.43Z"/><path class="cls-1" d="M189.32,58.86c.2,0,.3,.1,.3,.29v1.24c0,.19-.1,.29-.3,.29h-5.72c-.34,0-.62,.03-.84,.08-.22,.06-.4,.15-.54,.29s-.23,.32-.28,.55c-.05,.23-.08,.52-.08,.86v.13h7.4c.19,0,.29,.1,.29,.29v1.04c0,.19-.1,.29-.29,.29h-7.4v.22c0,.34,.03,.63,.08,.86,.05,.23,.15,.42,.28,.55,.14,.14,.31,.23,.54,.29,.22,.06,.5,.09,.84,.09h5.72c.2,0,.3,.1,.3,.29v1.24c0,.19-.1,.29-.3,.29h-5.76c-.66,0-1.23-.06-1.69-.18-.46-.12-.84-.32-1.13-.6-.29-.28-.51-.63-.64-1.07s-.2-.98-.2-1.6v-2.25c0-.63,.07-1.16,.2-1.6,.14-.44,.35-.79,.64-1.07,.29-.27,.67-.48,1.13-.6,.46-.13,1.03-.19,1.69-.19h5.76Z"/><path class="cls-1" d="M194.77,58.86c.21,0,.38,0,.52,.03,.14,.02,.26,.05,.37,.11,.11,.06,.21,.14,.3,.24,.1,.1,.21,.23,.33,.4l4.87,6.39c.04,.06,.09,.09,.17,.09h.12c.07,0,.11-.04,.11-.13v-6.84c0-.19,.1-.29,.29-.29h1.38c.19,0,.29,.1,.29,.29v7.52c0,.53-.1,.89-.29,1.08-.19,.19-.49,.28-.89,.28h-1.13c-.2,0-.37,0-.5-.03-.14-.02-.25-.05-.36-.1-.1-.05-.21-.13-.31-.23-.1-.1-.22-.24-.35-.41l-4.89-6.39c-.05-.06-.11-.09-.17-.09h-.12c-.07,0-.1,.04-.1,.13v6.84c0,.19-.1,.29-.29,.29h-1.38c-.2,0-.3-.1-.3-.29v-7.52c0-.53,.1-.89,.29-1.08,.19-.19,.49-.28,.89-.28h1.15Z"/><path class="cls-1" d="M216.52,58.86c.2,0,.3,.1,.3,.29v1.28c0,.2-.1,.3-.3,.3h-4.11v7.01c0,.19-.1,.29-.29,.29h-1.43c-.19,0-.29-.1-.29-.29v-7.01h-4.11c-.2,0-.3-.1-.3-.3v-1.28c0-.19,.1-.29,.3-.29h10.23Z"/><path class="cls-1" d="M227.59,58.86c.19,0,.36,.01,.5,.04,.14,.03,.26,.08,.37,.15,.1,.07,.2,.17,.28,.3s.17,.29,.26,.5l2.72,6.29c.04,.08,.1,.12,.18,.12h.16c.09,0,.15-.04,.18-.12l2.72-6.29c.09-.21,.17-.38,.25-.5s.18-.23,.28-.3c.1-.07,.22-.12,.36-.15,.13-.03,.3-.04,.49-.04h1.4c.45,0,.76,.1,.92,.31,.16,.21,.24,.56,.24,1.05v7.52c0,.19-.1,.29-.3,.29h-1.34c-.19,0-.29-.1-.29-.29v-6.84c0-.09-.04-.13-.11-.13h-.12c-.09,0-.14,.04-.17,.1l-2.65,5.87c-.1,.24-.21,.43-.32,.6-.11,.16-.23,.29-.35,.4-.13,.1-.27,.18-.43,.22-.16,.04-.35,.07-.57,.07h-.63c-.22,0-.41-.02-.57-.07-.16-.04-.31-.12-.43-.22-.13-.1-.24-.24-.35-.4-.11-.16-.22-.36-.32-.6l-2.65-5.87c-.03-.07-.08-.1-.17-.1h-.12c-.07,0-.11,.04-.11,.13v6.84c0,.19-.1,.29-.29,.29h-1.34c-.2,0-.3-.1-.3-.29v-7.52c0-.5,.08-.85,.24-1.05,.16-.21,.47-.31,.93-.31h1.43Z"/><path class="cls-1" d="M247.77,58.86c.33,0,.61,.07,.84,.2,.23,.14,.45,.4,.67,.79l4.34,7.87c.04,.09,.05,.16,.03,.22-.02,.06-.08,.08-.19,.08h-1.66c-.15,0-.25-.06-.3-.17l-.93-1.69h-6.16l-.9,1.69c-.06,.11-.16,.17-.3,.17h-1.7c-.11,0-.18-.03-.2-.08-.02-.06-.01-.13,.03-.22l4.3-7.87c.22-.39,.43-.66,.64-.79,.21-.14,.45-.2,.73-.2h.77Zm-2.54,5.79h4.51l-2.08-3.84c-.04-.06-.08-.09-.14-.09h-.08c-.06,0-.11,.03-.14,.09l-2.06,3.84Z"/><path class="cls-1" d="M258.36,58.86c.21,0,.38,0,.52,.03,.14,.02,.26,.05,.37,.11,.11,.06,.21,.14,.3,.24,.1,.1,.21,.23,.33,.4l4.87,6.39c.04,.06,.09,.09,.17,.09h.12c.07,0,.11-.04,.11-.13v-6.84c0-.19,.1-.29,.29-.29h1.38c.19,0,.29,.1,.29,.29v7.52c0,.53-.1,.89-.29,1.08-.19,.19-.49,.28-.89,.28h-1.13c-.2,0-.37,0-.5-.03-.14-.02-.25-.05-.36-.1-.1-.05-.21-.13-.31-.23-.1-.1-.22-.24-.35-.41l-4.89-6.39c-.05-.06-.11-.09-.17-.09h-.12c-.07,0-.1,.04-.1,.13v6.84c0,.19-.1,.29-.29,.29h-1.38c-.2,0-.3-.1-.3-.29v-7.52c0-.53,.1-.89,.29-1.08,.19-.19,.49-.28,.89-.28h1.15Z"/><path class="cls-1" d="M275.97,58.86c.33,0,.61,.07,.84,.2,.23,.14,.45,.4,.67,.79l4.34,7.87c.04,.09,.05,.16,.03,.22-.02,.06-.08,.08-.19,.08h-1.66c-.15,0-.25-.06-.3-.17l-.93-1.69h-6.16l-.9,1.69c-.06,.11-.16,.17-.3,.17h-1.7c-.11,0-.18-.03-.2-.08-.02-.06-.01-.13,.03-.22l4.3-7.87c.22-.39,.43-.66,.64-.79,.21-.14,.45-.2,.73-.2h.77Zm-2.54,5.79h4.51l-2.08-3.84c-.04-.06-.08-.09-.14-.09h-.08c-.06,0-.11,.03-.14,.09l-2.06,3.84Z"/><path class="cls-1" d="M293.92,58.86c.19,0,.29,.1,.29,.29v1.28c0,.2-.1,.3-.29,.3h-6.56c-.34,0-.62,.03-.85,.09s-.4,.15-.53,.29-.22,.32-.28,.54c-.06,.23-.09,.52-.09,.86v1.89c0,.35,.03,.64,.09,.87,.06,.23,.15,.41,.28,.55,.13,.14,.31,.23,.53,.29,.22,.06,.5,.08,.85,.08h4.32c.23,0,.39-.06,.5-.18,.1-.12,.16-.33,.16-.62v-1.06c0-.11-.05-.17-.16-.17h-3.84c-.19,0-.29-.1-.29-.3v-.98c0-.2,.1-.3,.29-.3h5.46c.26,0,.39,.13,.39,.39v3.05c0,.73-.14,1.25-.42,1.55-.28,.3-.68,.45-1.21,.45h-5.29c-.66,0-1.23-.06-1.69-.18-.46-.12-.84-.32-1.13-.6-.29-.28-.51-.63-.64-1.07s-.2-.98-.2-1.6v-2.25c0-.63,.07-1.16,.2-1.6,.14-.44,.35-.79,.64-1.07,.29-.27,.67-.48,1.13-.6,.46-.13,1.03-.19,1.69-.19h6.64Z"/><path class="cls-1" d="M306.48,58.86c.2,0,.3,.1,.3,.29v1.24c0,.19-.1,.29-.3,.29h-5.72c-.34,0-.62,.03-.84,.08-.22,.06-.4,.15-.54,.29s-.23,.32-.28,.55c-.05,.23-.08,.52-.08,.86v.13h7.4c.19,0,.29,.1,.29,.29v1.04c0,.19-.1,.29-.29,.29h-7.4v.22c0,.34,.03,.63,.08,.86,.05,.23,.15,.42,.28,.55,.14,.14,.31,.23,.54,.29,.22,.06,.5,.09,.84,.09h5.72c.2,0,.3,.1,.3,.29v1.24c0,.19-.1,.29-.3,.29h-5.76c-.66,0-1.23-.06-1.69-.18-.46-.12-.84-.32-1.13-.6-.29-.28-.51-.63-.64-1.07s-.2-.98-.2-1.6v-2.25c0-.63,.07-1.16,.2-1.6,.14-.44,.35-.79,.64-1.07,.29-.27,.67-.48,1.13-.6,.46-.13,1.03-.19,1.69-.19h5.76Z"/><path class="cls-1" d="M312.19,58.86c.19,0,.36,.01,.5,.04,.14,.03,.26,.08,.37,.15,.1,.07,.2,.17,.28,.3s.17,.29,.26,.5l2.72,6.29c.04,.08,.1,.12,.18,.12h.16c.09,0,.15-.04,.18-.12l2.72-6.29c.09-.21,.17-.38,.25-.5s.18-.23,.28-.3c.1-.07,.22-.12,.36-.15,.13-.03,.3-.04,.49-.04h1.4c.45,0,.76,.1,.92,.31,.16,.21,.24,.56,.24,1.05v7.52c0,.19-.1,.29-.3,.29h-1.34c-.19,0-.29-.1-.29-.29v-6.84c0-.09-.04-.13-.11-.13h-.12c-.09,0-.14,.04-.17,.1l-2.65,5.87c-.1,.24-.21,.43-.32,.6-.11,.16-.23,.29-.35,.4-.13,.1-.27,.18-.43,.22-.16,.04-.35,.07-.57,.07h-.63c-.22,0-.41-.02-.57-.07-.16-.04-.31-.12-.43-.22-.13-.1-.24-.24-.35-.4-.11-.16-.22-.36-.32-.6l-2.65-5.87c-.03-.07-.08-.1-.17-.1h-.12c-.07,0-.11,.04-.11,.13v6.84c0,.19-.1,.29-.29,.29h-1.34c-.2,0-.3-.1-.3-.29v-7.52c0-.5,.08-.85,.24-1.05,.16-.21,.47-.31,.93-.31h1.43Z"/><path class="cls-1" d="M335.88,58.86c.2,0,.3,.1,.3,.29v1.24c0,.19-.1,.29-.3,.29h-5.72c-.34,0-.62,.03-.84,.08-.22,.06-.4,.15-.54,.29s-.23,.32-.28,.55c-.05,.23-.08,.52-.08,.86v.13h7.4c.19,0,.29,.1,.29,.29v1.04c0,.19-.1,.29-.29,.29h-7.4v.22c0,.34,.03,.63,.08,.86,.05,.23,.15,.42,.28,.55,.14,.14,.31,.23,.54,.29,.22,.06,.5,.09,.84,.09h5.72c.2,0,.3,.1,.3,.29v1.24c0,.19-.1,.29-.3,.29h-5.76c-.66,0-1.23-.06-1.69-.18-.46-.12-.84-.32-1.13-.6-.29-.28-.51-.63-.64-1.07s-.2-.98-.2-1.6v-2.25c0-.63,.07-1.16,.2-1.6,.14-.44,.35-.79,.64-1.07,.29-.27,.67-.48,1.13-.6,.46-.13,1.03-.19,1.69-.19h5.76Z"/><path class="cls-1" d="M341.33,58.86c.21,0,.38,0,.52,.03,.14,.02,.26,.05,.37,.11,.11,.06,.21,.14,.3,.24,.1,.1,.21,.23,.33,.4l4.87,6.39c.04,.06,.09,.09,.17,.09h.12c.07,0,.11-.04,.11-.13v-6.84c0-.19,.1-.29,.29-.29h1.38c.19,0,.29,.1,.29,.29v7.52c0,.53-.1,.89-.29,1.08-.19,.19-.49,.28-.89,.28h-1.13c-.2,0-.37,0-.5-.03-.14-.02-.25-.05-.36-.1-.1-.05-.21-.13-.31-.23-.1-.1-.22-.24-.35-.41l-4.89-6.39c-.05-.06-.11-.09-.17-.09h-.12c-.07,0-.1,.04-.1,.13v6.84c0,.19-.1,.29-.29,.29h-1.38c-.2,0-.3-.1-.3-.29v-7.52c0-.53,.1-.89,.29-1.08,.19-.19,.49-.28,.89-.28h1.15Z"/><path class="cls-1" d="M363.09,58.86c.2,0,.3,.1,.3,.29v1.28c0,.2-.1,.3-.3,.3h-4.11v7.01c0,.19-.1,.29-.29,.29h-1.43c-.19,0-.29-.1-.29-.29v-7.01h-4.11c-.2,0-.3-.1-.3-.3v-1.28c0-.19,.1-.29,.3-.29h10.23Z"/></g></g></svg>